<mxfile host="app.diagrams.net" modified="2020-03-17T15:43:39.411Z" agent="Mozilla/5.0 (Windows NT 10.0; Win64; x64) AppleWebKit/537.36 (KHTML, like Gecko) Chrome/79.0.3945.88 Safari/537.36" etag="34TT41Edy1yvBZdAg_wK" version="12.8.5" type="github">
  <diagram id="0b3VQsdESGKxlqXIOIGi" name="Page-1">
    <mxGraphModel dx="1038" dy="548" grid="1" gridSize="10" guides="1" tooltips="1" connect="1" arrows="1" fold="1" page="1" pageScale="1" pageWidth="827" pageHeight="1169" math="0" shadow="0">
      <root>
        <mxCell id="0" />
        <mxCell id="1" parent="0" />
        <mxCell id="elo4PPVINw1dx1NfWVkK-7" value="&lt;b&gt;&lt;font style=&quot;font-size: 34px&quot;&gt;THOUGHT PROCESS MAP&lt;/font&gt;&lt;/b&gt;" style="text;html=1;strokeColor=none;fillColor=none;align=center;verticalAlign=middle;whiteSpace=wrap;rounded=0;" parent="1" vertex="1">
          <mxGeometry x="730" y="230" width="440" height="50" as="geometry" />
        </mxCell>
        <mxCell id="elo4PPVINw1dx1NfWVkK-8" value="&lt;b&gt;&lt;font style=&quot;font-size: 22px&quot;&gt;TARGET&lt;/font&gt;&lt;/b&gt;" style="text;html=1;strokeColor=none;fillColor=none;align=center;verticalAlign=middle;whiteSpace=wrap;rounded=0;" parent="1" vertex="1">
          <mxGeometry x="530" y="330" width="60" height="30" as="geometry" />
        </mxCell>
        <mxCell id="elo4PPVINw1dx1NfWVkK-12" style="edgeStyle=orthogonalEdgeStyle;rounded=0;orthogonalLoop=1;jettySize=auto;html=1;exitX=1;exitY=0.5;exitDx=0;exitDy=0;entryX=0;entryY=0.5;entryDx=0;entryDy=0;" parent="1" source="elo4PPVINw1dx1NfWVkK-9" target="elo4PPVINw1dx1NfWVkK-10" edge="1">
          <mxGeometry relative="1" as="geometry" />
        </mxCell>
        <mxCell id="elo4PPVINw1dx1NfWVkK-9" value="TARGET?" style="rounded=1;whiteSpace=wrap;html=1;" parent="1" vertex="1">
          <mxGeometry x="500" y="305" width="190" height="50" as="geometry" />
        </mxCell>
        <mxCell id="elo4PPVINw1dx1NfWVkK-13" style="edgeStyle=orthogonalEdgeStyle;rounded=0;orthogonalLoop=1;jettySize=auto;html=1;exitX=1;exitY=0.5;exitDx=0;exitDy=0;" parent="1" source="elo4PPVINw1dx1NfWVkK-10" target="elo4PPVINw1dx1NfWVkK-11" edge="1">
          <mxGeometry relative="1" as="geometry" />
        </mxCell>
        <mxCell id="elo4PPVINw1dx1NfWVkK-10" value="RETURN TO ACCEPTABLE DEFECT LIMITS.&lt;br&gt;RETURN TO ACCEPTABLE COMPONENT REJECT RATES." style="rounded=1;whiteSpace=wrap;html=1;" parent="1" vertex="1">
          <mxGeometry x="730" y="290" width="370" height="80" as="geometry" />
        </mxCell>
        <mxCell id="wV93ikqvJ5ph0jhUVqBz-9" style="edgeStyle=orthogonalEdgeStyle;rounded=0;orthogonalLoop=1;jettySize=auto;html=1;exitX=0.5;exitY=1;exitDx=0;exitDy=0;entryX=0.5;entryY=0;entryDx=0;entryDy=0;" edge="1" parent="1" source="elo4PPVINw1dx1NfWVkK-11" target="elo4PPVINw1dx1NfWVkK-14">
          <mxGeometry relative="1" as="geometry" />
        </mxCell>
        <mxCell id="elo4PPVINw1dx1NfWVkK-11" value="SELECT TEAM MEMBERS" style="rounded=1;whiteSpace=wrap;html=1;" parent="1" vertex="1">
          <mxGeometry x="1190" y="305" width="190" height="50" as="geometry" />
        </mxCell>
        <mxCell id="elo4PPVINw1dx1NfWVkK-18" style="edgeStyle=orthogonalEdgeStyle;rounded=0;orthogonalLoop=1;jettySize=auto;html=1;exitX=0.5;exitY=1;exitDx=0;exitDy=0;entryX=0.5;entryY=0;entryDx=0;entryDy=0;" parent="1" source="elo4PPVINw1dx1NfWVkK-14" target="elo4PPVINw1dx1NfWVkK-15" edge="1">
          <mxGeometry relative="1" as="geometry" />
        </mxCell>
        <mxCell id="elo4PPVINw1dx1NfWVkK-14" value="DATA COLLECTION - HISTORY OF THE PROBLEM." style="rounded=1;whiteSpace=wrap;html=1;" parent="1" vertex="1">
          <mxGeometry x="855" y="420" width="265" height="60" as="geometry" />
        </mxCell>
        <mxCell id="elo4PPVINw1dx1NfWVkK-20" style="edgeStyle=orthogonalEdgeStyle;rounded=0;orthogonalLoop=1;jettySize=auto;html=1;exitX=0.5;exitY=1;exitDx=0;exitDy=0;entryX=0.5;entryY=0;entryDx=0;entryDy=0;" parent="1" source="elo4PPVINw1dx1NfWVkK-15" target="elo4PPVINw1dx1NfWVkK-19" edge="1">
          <mxGeometry relative="1" as="geometry" />
        </mxCell>
        <mxCell id="elo4PPVINw1dx1NfWVkK-37" style="edgeStyle=orthogonalEdgeStyle;rounded=0;orthogonalLoop=1;jettySize=auto;html=1;exitX=1;exitY=0.5;exitDx=0;exitDy=0;entryX=0;entryY=0.5;entryDx=0;entryDy=0;" parent="1" source="elo4PPVINw1dx1NfWVkK-15" target="elo4PPVINw1dx1NfWVkK-36" edge="1">
          <mxGeometry relative="1" as="geometry" />
        </mxCell>
        <mxCell id="elo4PPVINw1dx1NfWVkK-15" value="FOCUS ON PROBLEM - SELECT COMPONENT SPECIFIC AREA(S) TO IMPROVE." style="rounded=1;whiteSpace=wrap;html=1;" parent="1" vertex="1">
          <mxGeometry x="855" y="500" width="265" height="60" as="geometry" />
        </mxCell>
        <mxCell id="elo4PPVINw1dx1NfWVkK-16" style="edgeStyle=orthogonalEdgeStyle;rounded=0;orthogonalLoop=1;jettySize=auto;html=1;exitX=0.5;exitY=1;exitDx=0;exitDy=0;" parent="1" source="elo4PPVINw1dx1NfWVkK-11" target="elo4PPVINw1dx1NfWVkK-11" edge="1">
          <mxGeometry relative="1" as="geometry" />
        </mxCell>
        <mxCell id="elo4PPVINw1dx1NfWVkK-19" value="FOCUS ON PROBLEM - SELECT PROCESS SPECIFIC AREA(S) TO IMPROVE." style="rounded=1;whiteSpace=wrap;html=1;" parent="1" vertex="1">
          <mxGeometry x="855" y="590" width="265" height="60" as="geometry" />
        </mxCell>
        <mxCell id="elo4PPVINw1dx1NfWVkK-39" style="edgeStyle=orthogonalEdgeStyle;rounded=0;orthogonalLoop=1;jettySize=auto;html=1;exitX=1;exitY=0.5;exitDx=0;exitDy=0;entryX=0;entryY=0.5;entryDx=0;entryDy=0;" parent="1" source="elo4PPVINw1dx1NfWVkK-21" target="elo4PPVINw1dx1NfWVkK-38" edge="1">
          <mxGeometry relative="1" as="geometry" />
        </mxCell>
        <mxCell id="elo4PPVINw1dx1NfWVkK-21" value="ANALYSE AND COLLECT IDEAS FOR ELIMINATION OF CAUSES" style="rounded=1;whiteSpace=wrap;html=1;" parent="1" vertex="1">
          <mxGeometry x="855" y="670" width="265" height="70" as="geometry" />
        </mxCell>
        <mxCell id="elo4PPVINw1dx1NfWVkK-42" style="edgeStyle=orthogonalEdgeStyle;rounded=0;orthogonalLoop=1;jettySize=auto;html=1;exitX=0;exitY=0.5;exitDx=0;exitDy=0;entryX=1;entryY=0.5;entryDx=0;entryDy=0;" parent="1" source="elo4PPVINw1dx1NfWVkK-22" target="elo4PPVINw1dx1NfWVkK-28" edge="1">
          <mxGeometry relative="1" as="geometry" />
        </mxCell>
        <mxCell id="elo4PPVINw1dx1NfWVkK-22" value="PLAN IMPLEMENTATION OF ACTIONS." style="rounded=1;whiteSpace=wrap;html=1;" parent="1" vertex="1">
          <mxGeometry x="855" y="760" width="265" height="60" as="geometry" />
        </mxCell>
        <mxCell id="elo4PPVINw1dx1NfWVkK-44" style="edgeStyle=orthogonalEdgeStyle;rounded=0;orthogonalLoop=1;jettySize=auto;html=1;exitX=1;exitY=0.5;exitDx=0;exitDy=0;entryX=1;entryY=0.5;entryDx=0;entryDy=0;" parent="1" source="elo4PPVINw1dx1NfWVkK-23" target="elo4PPVINw1dx1NfWVkK-19" edge="1">
          <mxGeometry relative="1" as="geometry">
            <Array as="points">
              <mxPoint x="1520" y="950" />
              <mxPoint x="1520" y="620" />
            </Array>
          </mxGeometry>
        </mxCell>
        <mxCell id="elo4PPVINw1dx1NfWVkK-23" value="CHOOSE ANOTHER PROCESS THAT CAN BENEFIT FROM LESSONS LEARNED." style="rounded=1;whiteSpace=wrap;html=1;" parent="1" vertex="1">
          <mxGeometry x="810" y="920" width="320" height="60" as="geometry" />
        </mxCell>
        <mxCell id="elo4PPVINw1dx1NfWVkK-26" style="edgeStyle=orthogonalEdgeStyle;rounded=0;orthogonalLoop=1;jettySize=auto;html=1;exitX=1;exitY=0.5;exitDx=0;exitDy=0;" parent="1" source="elo4PPVINw1dx1NfWVkK-24" target="elo4PPVINw1dx1NfWVkK-25" edge="1">
          <mxGeometry relative="1" as="geometry" />
        </mxCell>
        <mxCell id="elo4PPVINw1dx1NfWVkK-24" value="CAN THIS BE APPLIED TO SIMILAR PARTS?" style="rounded=1;whiteSpace=wrap;html=1;" parent="1" vertex="1">
          <mxGeometry x="700" y="830" width="190" height="60" as="geometry" />
        </mxCell>
        <mxCell id="elo4PPVINw1dx1NfWVkK-27" style="edgeStyle=orthogonalEdgeStyle;rounded=0;orthogonalLoop=1;jettySize=auto;html=1;exitX=0.5;exitY=1;exitDx=0;exitDy=0;entryX=0.5;entryY=0;entryDx=0;entryDy=0;" parent="1" source="elo4PPVINw1dx1NfWVkK-25" target="elo4PPVINw1dx1NfWVkK-23" edge="1">
          <mxGeometry relative="1" as="geometry">
            <Array as="points">
              <mxPoint x="1146" y="900" />
              <mxPoint x="970" y="900" />
            </Array>
          </mxGeometry>
        </mxCell>
        <mxCell id="elo4PPVINw1dx1NfWVkK-43" style="edgeStyle=orthogonalEdgeStyle;rounded=0;orthogonalLoop=1;jettySize=auto;html=1;exitX=1;exitY=0.5;exitDx=0;exitDy=0;entryX=1;entryY=0.5;entryDx=0;entryDy=0;" parent="1" source="elo4PPVINw1dx1NfWVkK-25" target="elo4PPVINw1dx1NfWVkK-38" edge="1">
          <mxGeometry relative="1" as="geometry" />
        </mxCell>
        <mxCell id="elo4PPVINw1dx1NfWVkK-25" value="ESTIMATE RESULTS." style="rounded=1;whiteSpace=wrap;html=1;" parent="1" vertex="1">
          <mxGeometry x="1051" y="830" width="190" height="60" as="geometry" />
        </mxCell>
        <mxCell id="elo4PPVINw1dx1NfWVkK-31" style="edgeStyle=orthogonalEdgeStyle;rounded=0;orthogonalLoop=1;jettySize=auto;html=1;exitX=0.5;exitY=0;exitDx=0;exitDy=0;" parent="1" source="elo4PPVINw1dx1NfWVkK-28" edge="1">
          <mxGeometry relative="1" as="geometry">
            <mxPoint x="650" y="750" as="targetPoint" />
          </mxGeometry>
        </mxCell>
        <mxCell id="wV93ikqvJ5ph0jhUVqBz-10" style="edgeStyle=orthogonalEdgeStyle;rounded=0;orthogonalLoop=1;jettySize=auto;html=1;exitX=0.5;exitY=1;exitDx=0;exitDy=0;entryX=0;entryY=0.5;entryDx=0;entryDy=0;" edge="1" parent="1" source="elo4PPVINw1dx1NfWVkK-28" target="elo4PPVINw1dx1NfWVkK-24">
          <mxGeometry relative="1" as="geometry" />
        </mxCell>
        <mxCell id="elo4PPVINw1dx1NfWVkK-28" value="ESTIMATE RESULTS FOR CONTROL." style="rounded=1;whiteSpace=wrap;html=1;" parent="1" vertex="1">
          <mxGeometry x="450" y="770" width="190" height="60" as="geometry" />
        </mxCell>
        <mxCell id="elo4PPVINw1dx1NfWVkK-30" style="edgeStyle=orthogonalEdgeStyle;rounded=0;orthogonalLoop=1;jettySize=auto;html=1;exitX=0.5;exitY=1;exitDx=0;exitDy=0;entryX=0;entryY=0.5;entryDx=0;entryDy=0;" parent="1" source="elo4PPVINw1dx1NfWVkK-29" target="elo4PPVINw1dx1NfWVkK-21" edge="1">
          <mxGeometry relative="1" as="geometry" />
        </mxCell>
        <mxCell id="elo4PPVINw1dx1NfWVkK-29" value="&lt;ul&gt;&lt;li&gt;PROCESS MAPPING.&lt;/li&gt;&lt;li&gt;CAUSE &amp;amp; EFFECT MATRIX.&lt;/li&gt;&lt;li&gt;FMEA.&lt;/li&gt;&lt;li&gt;PARETO ANALYSIS.&lt;/li&gt;&lt;li&gt;RTY, PPM, FPY.&lt;/li&gt;&lt;li&gt;GRAPHICAL ANALYSIS.&lt;/li&gt;&lt;li&gt;5 Why?&amp;nbsp;&lt;/li&gt;&lt;li&gt;ANOVA.&lt;/li&gt;&lt;li&gt;MSE.&lt;/li&gt;&lt;li&gt;CORRELATION.&lt;/li&gt;&lt;/ul&gt;" style="rounded=1;whiteSpace=wrap;html=1;align=left;" parent="1" vertex="1">
          <mxGeometry x="510" y="510" width="270" height="220" as="geometry" />
        </mxCell>
        <mxCell id="elo4PPVINw1dx1NfWVkK-32" value="NON-ACCEPTABLE" style="text;html=1;strokeColor=none;fillColor=none;align=center;verticalAlign=middle;whiteSpace=wrap;rounded=0;" parent="1" vertex="1">
          <mxGeometry x="420" y="740" width="130" height="20" as="geometry" />
        </mxCell>
        <mxCell id="elo4PPVINw1dx1NfWVkK-33" value="NON-ACCEPTABLE" style="text;html=1;strokeColor=none;fillColor=none;align=center;verticalAlign=middle;whiteSpace=wrap;rounded=0;" parent="1" vertex="1">
          <mxGeometry x="1320" y="810" width="130" height="20" as="geometry" />
        </mxCell>
        <mxCell id="elo4PPVINw1dx1NfWVkK-34" value="ACCEPTABLE" style="text;html=1;strokeColor=none;fillColor=none;align=center;verticalAlign=middle;whiteSpace=wrap;rounded=0;" parent="1" vertex="1">
          <mxGeometry x="560" y="860" width="130" height="20" as="geometry" />
        </mxCell>
        <mxCell id="elo4PPVINw1dx1NfWVkK-35" value="ACCEPTABLE" style="text;html=1;strokeColor=none;fillColor=none;align=center;verticalAlign=middle;whiteSpace=wrap;rounded=0;" parent="1" vertex="1">
          <mxGeometry x="1150" y="890" width="130" height="20" as="geometry" />
        </mxCell>
        <mxCell id="elo4PPVINw1dx1NfWVkK-45" style="edgeStyle=orthogonalEdgeStyle;rounded=0;orthogonalLoop=1;jettySize=auto;html=1;exitX=0.5;exitY=1;exitDx=0;exitDy=0;" parent="1" source="elo4PPVINw1dx1NfWVkK-36" edge="1">
          <mxGeometry relative="1" as="geometry">
            <mxPoint x="1343" y="620" as="targetPoint" />
          </mxGeometry>
        </mxCell>
        <mxCell id="elo4PPVINw1dx1NfWVkK-36" value="PARETO DIAGRAM - DEFECT TYPE.&lt;br&gt;PARETO DIAGRAM -&amp;nbsp; SUB TYPE." style="rounded=1;whiteSpace=wrap;html=1;" parent="1" vertex="1">
          <mxGeometry x="1210" y="510" width="265" height="60" as="geometry" />
        </mxCell>
        <mxCell id="elo4PPVINw1dx1NfWVkK-40" style="edgeStyle=orthogonalEdgeStyle;rounded=0;orthogonalLoop=1;jettySize=auto;html=1;exitX=0.5;exitY=1;exitDx=0;exitDy=0;entryX=1;entryY=0.5;entryDx=0;entryDy=0;" parent="1" source="elo4PPVINw1dx1NfWVkK-38" target="elo4PPVINw1dx1NfWVkK-22" edge="1">
          <mxGeometry relative="1" as="geometry" />
        </mxCell>
        <mxCell id="elo4PPVINw1dx1NfWVkK-38" value="&lt;ul&gt;&lt;li&gt;BRAINSTORMING.&lt;/li&gt;&lt;li&gt;CAPABILITY STUDY.&lt;/li&gt;&lt;li&gt;COMPARATIVE STUDY.&lt;/li&gt;&lt;/ul&gt;" style="rounded=1;whiteSpace=wrap;html=1;align=left;" parent="1" vertex="1">
          <mxGeometry x="1241" y="660" width="189" height="70" as="geometry" />
        </mxCell>
        <mxCell id="wV93ikqvJ5ph0jhUVqBz-2" value="DON&#39;T KNOWS.&lt;br&gt;&lt;ul&gt;&lt;li&gt;Main Cost.&lt;/li&gt;&lt;li&gt;Cost Classification.&lt;/li&gt;&lt;li&gt;&quot;Real&quot; vision rejection rate.&lt;/li&gt;&lt;li&gt;Cost difference between suppliers&lt;/li&gt;&lt;li&gt;Actual production cost of &quot;cost saving&quot;.&lt;/li&gt;&lt;/ul&gt;" style="text;html=1;strokeColor=none;fillColor=none;align=left;verticalAlign=middle;whiteSpace=wrap;rounded=0;" vertex="1" parent="1">
          <mxGeometry x="1170" y="375" width="260" height="150" as="geometry" />
        </mxCell>
        <mxCell id="wV93ikqvJ5ph0jhUVqBz-4" value="KNOWN.&lt;br&gt;&lt;ul&gt;&lt;li&gt;Problem didn&#39;t occur using previous supplier.&lt;/li&gt;&lt;li&gt;Cost of Scrap / Rework.&lt;/li&gt;&lt;li&gt;Recorded component rejection rate.&lt;/li&gt;&lt;li&gt;Cost difference between suppliers&lt;/li&gt;&lt;li&gt;Actual production time and material loss since change of supplier..&lt;/li&gt;&lt;/ul&gt;" style="text;html=1;strokeColor=none;fillColor=none;align=left;verticalAlign=middle;whiteSpace=wrap;rounded=0;" vertex="1" parent="1">
          <mxGeometry x="520" y="375" width="300" height="150" as="geometry" />
        </mxCell>
        <mxCell id="wV93ikqvJ5ph0jhUVqBz-7" value="" style="shape=image;html=1;verticalAlign=top;verticalLabelPosition=bottom;labelBackgroundColor=#ffffff;imageAspect=0;aspect=fixed;image=https://cdn4.iconfinder.com/data/icons/developer-set-3/128/sc1-128.png" vertex="1" parent="1">
          <mxGeometry x="1080" y="390" width="128" height="128" as="geometry" />
        </mxCell>
        <mxCell id="wV93ikqvJ5ph0jhUVqBz-8" value="" style="shape=image;html=1;verticalAlign=top;verticalLabelPosition=bottom;labelBackgroundColor=#ffffff;imageAspect=0;aspect=fixed;image=https://cdn4.iconfinder.com/data/icons/developer-set-3/128/sc2-128.png" vertex="1" parent="1">
          <mxGeometry x="770" y="390" width="128" height="128" as="geometry" />
        </mxCell>
      </root>
    </mxGraphModel>
  </diagram>
</mxfile>
